<svg width="51" height="15" viewBox="0 0 51 15" fill="none" xmlns="http://www.w3.org/2000/svg">
<path d="M0.0376812 14.9812L5.78406 0.73768H6.70725L12.4159 14.9812H11.3043L6.25507 2.0942L1.18696 14.9812H0.0376812ZM13.5785 10.2333C13.5785 9.59275 13.6789 8.98985 13.8799 8.42464C14.0809 7.85942 14.3572 7.36956 14.7089 6.95507C15.0732 6.52802 15.4939 6.19517 15.9712 5.95652C16.4485 5.70531 16.9635 5.57971 17.5161 5.57971C18.1567 5.57971 18.7031 5.71159 19.1553 5.97536C19.62 6.22657 19.9968 6.5029 20.2857 6.80435C20.6248 7.1686 20.9075 7.57681 21.1335 8.02899C21.3345 7.57681 21.5983 7.1686 21.9248 6.80435C22.2137 6.5029 22.5843 6.22657 23.0364 5.97536C23.4886 5.71159 24.0538 5.57971 24.7321 5.57971C25.2596 5.57971 25.762 5.69275 26.2393 5.91884C26.7166 6.14493 27.1374 6.45894 27.5017 6.86087C27.8659 7.2628 28.1548 7.75266 28.3683 8.33043C28.5818 8.90821 28.6886 9.54251 28.6886 10.2333V15H27.7654V10.2333C27.7654 9.59275 27.6524 9.0401 27.4263 8.57536C27.2002 8.09807 26.9239 7.7087 26.5973 7.40725C26.2833 7.1058 25.9504 6.87971 25.5988 6.72899C25.2596 6.57826 24.9707 6.5029 24.7321 6.5029C24.2674 6.5029 23.8403 6.60966 23.4509 6.82319C23.0616 7.03671 22.7287 7.31932 22.4524 7.67101C22.176 8.0227 21.9625 8.42464 21.8118 8.87681C21.6611 9.31642 21.5857 9.7686 21.5857 10.2333V15H20.6625V10.2333C20.6625 9.74348 20.5872 9.27246 20.4364 8.82029C20.2857 8.36812 20.0722 7.97246 19.7959 7.63333C19.5195 7.28164 19.1867 7.00531 18.7973 6.80435C18.4079 6.60338 17.9809 6.5029 17.5161 6.5029C17.1142 6.5029 16.7311 6.60338 16.3669 6.80435C16.0026 6.99275 15.6823 7.25652 15.406 7.59565C15.1297 7.92222 14.9099 8.31159 14.7466 8.76377C14.5833 9.21594 14.5017 9.7058 14.5017 10.2333H13.5785ZM38.5238 15V10.3275C38.5238 9.82512 38.4296 9.34783 38.2412 8.89565C38.0654 8.44348 37.8079 8.04783 37.4688 7.7087C37.1422 7.357 36.7465 7.08068 36.2818 6.87971C35.8296 6.67874 35.3272 6.57826 34.7746 6.57826C34.247 6.57826 33.7572 6.68502 33.305 6.89855C32.8528 7.11208 32.4572 7.39469 32.118 7.74638C31.7915 8.09807 31.5277 8.5 31.3267 8.95217C31.1383 9.40435 31.0441 9.8628 31.0441 10.3275C31.0441 10.7923 31.1509 11.2507 31.3644 11.7029C31.5779 12.1425 31.8605 12.5382 32.2122 12.8899C32.5639 13.2415 32.9596 13.5242 33.3992 13.7377C33.8514 13.9512 34.3098 14.058 34.7746 14.058V15C34.134 15 33.5311 14.8807 32.9659 14.642C32.4006 14.3908 31.9045 14.0517 31.4775 13.6246C31.0504 13.1976 30.7113 12.7014 30.4601 12.1362C30.2214 11.571 30.1021 10.9681 30.1021 10.3275C30.1021 9.71208 30.2151 9.12174 30.4412 8.55652C30.6673 7.9913 30.9813 7.49517 31.3833 7.06812C31.7977 6.6285 32.2876 6.28309 32.8528 6.03188C33.4306 5.76812 34.0712 5.63623 34.7746 5.63623C35.4151 5.63623 36.018 5.76812 36.5833 6.03188C37.161 6.28309 37.6634 6.6285 38.0905 7.06812C38.5176 7.49517 38.8504 7.9913 39.0891 8.55652C39.3403 9.12174 39.4659 9.71208 39.4659 10.3275V15H38.5238ZM40.8826 10.2333C40.8826 9.65556 40.9893 9.09034 41.2029 8.53768C41.429 7.97246 41.7493 7.47633 42.1637 7.04927C42.5782 6.60966 43.0807 6.25797 43.671 5.9942C44.2613 5.73043 44.927 5.59855 45.6681 5.59855C46.3715 5.59855 47.0058 5.73043 47.571 5.9942C48.1488 6.25797 48.6386 6.60966 49.0406 7.04927C49.4425 7.47633 49.7502 7.97246 49.9637 8.53768C50.1898 9.09034 50.3029 9.65556 50.3029 10.2333V15H49.2855V10.2333C49.2855 9.73092 49.1913 9.2599 49.0029 8.82029C48.8145 8.38068 48.557 7.99758 48.2304 7.67101C47.9038 7.34444 47.5207 7.08696 47.0811 6.89855C46.6415 6.69758 46.1705 6.5971 45.6681 6.5971C45.0903 6.5971 44.5691 6.69758 44.1043 6.89855C43.6396 7.08696 43.2377 7.34444 42.8985 7.67101C42.572 7.99758 42.3207 8.38068 42.1449 8.82029C41.9691 9.2599 41.8811 9.73092 41.8811 10.2333H40.8826Z" fill="#67ADFF"/>
<path d="M0.0376812 14.9812L-0.311764 14.8402L-0.520661 15.358H0.0376812V14.9812ZM5.78406 0.73768V0.360869H5.52976L5.43461 0.596701L5.78406 0.73768ZM6.70725 0.73768L7.05701 0.597497L6.96217 0.360869H6.70725V0.73768ZM12.4159 14.9812V15.358H12.9729L12.7657 14.841L12.4159 14.9812ZM11.3043 14.9812L10.9535 15.1186L11.0473 15.358H11.3043V14.9812ZM6.25507 2.0942L6.60592 1.95674L6.25573 1.06297L5.9044 1.95629L6.25507 2.0942ZM1.18696 14.9812V15.358H1.44367L1.53762 15.1191L1.18696 14.9812ZM0.387126 15.1221L6.1335 0.87866L5.43461 0.596701L-0.311764 14.8402L0.387126 15.1221ZM5.78406 1.11449H6.70725V0.360869H5.78406V1.11449ZM6.35748 0.877864L12.0662 15.1213L12.7657 14.841L7.05701 0.597497L6.35748 0.877864ZM12.4159 14.6043H11.3043V15.358H12.4159V14.6043ZM11.6552 14.8437L6.60592 1.95674L5.90423 2.23167L10.9535 15.1186L11.6552 14.8437ZM5.9044 1.95629L0.836288 14.8433L1.53762 15.1191L6.60574 2.23211L5.9044 1.95629ZM1.18696 14.6043H0.0376812V15.358H1.18696V14.6043ZM13.5785 10.2333H13.2017V10.6101H13.5785V10.2333ZM13.8799 8.42464L14.235 8.55087L13.8799 8.42464ZM14.7089 6.95507L14.4222 6.71054L14.4216 6.71128L14.7089 6.95507ZM15.9712 5.95652L16.1398 6.29362L16.1467 6.28997L15.9712 5.95652ZM19.1553 5.97536L18.9653 6.30102L18.9761 6.30685L19.1553 5.97536ZM20.2857 6.80435L20.5615 6.54755L20.5578 6.54363L20.2857 6.80435ZM21.1335 8.02899L20.7965 8.1975L21.1536 8.91166L21.4779 8.18202L21.1335 8.02899ZM21.9248 6.80435L21.6526 6.54349L21.6443 6.55281L21.9248 6.80435ZM23.0364 5.97536L23.2195 6.30483L23.2263 6.30084L23.0364 5.97536ZM26.2393 5.91884L26.4006 5.5783L26.2393 5.91884ZM28.3683 8.33043L28.0149 8.46106L28.3683 8.33043ZM28.6886 15V15.3768H29.0654V15H28.6886ZM27.7654 15H27.3886V15.3768H27.7654V15ZM27.4263 8.57536L27.0857 8.73668L27.0874 8.7402L27.4263 8.57536ZM26.5973 7.40725L26.3363 7.67913L26.3417 7.68413L26.5973 7.40725ZM25.5988 6.72899L25.4457 7.07335L25.4503 7.07533L25.5988 6.72899ZM23.4509 6.82319L23.6321 7.15358V7.15358L23.4509 6.82319ZM22.4524 7.67101L22.1561 7.43821L22.4524 7.67101ZM21.8118 8.87681L22.1683 8.99902L22.1693 8.99597L21.8118 8.87681ZM21.5857 15V15.3768H21.9625V15H21.5857ZM20.6625 15H20.2857V15.3768H20.6625V15ZM20.4364 8.82029L20.079 8.93945L20.4364 8.82029ZM19.7959 7.63333L19.4995 7.86617L19.5037 7.87135L19.7959 7.63333ZM18.7973 6.80435L18.6245 7.13919L18.7973 6.80435ZM16.3669 6.80435L16.54 7.13916L16.5489 7.13427L16.3669 6.80435ZM15.406 7.59565L15.6937 7.83909L15.6981 7.83367L15.406 7.59565ZM14.7466 8.76377L14.3922 8.63579L14.7466 8.76377ZM14.5017 10.2333V10.6101H14.8785V10.2333H14.5017ZM13.9553 10.2333C13.9553 9.63283 14.0493 9.07289 14.235 8.55087L13.5249 8.2984C13.3085 8.90682 13.2017 9.55267 13.2017 10.2333H13.9553ZM14.235 8.55087C14.4222 8.02417 14.6769 7.57517 14.9962 7.19886L14.4216 6.71128C14.0375 7.16396 13.7395 7.69467 13.5249 8.2984L14.235 8.55087ZM14.9956 7.1996C15.3288 6.80897 15.71 6.50844 16.1397 6.29355L15.8027 5.61949C15.2779 5.8819 14.8175 6.24707 14.4222 6.71054L14.9956 7.1996ZM16.1467 6.28997C16.5685 6.06796 17.0231 5.95652 17.5161 5.95652V5.2029C16.9039 5.2029 16.3285 5.34266 15.7957 5.62307L16.1467 6.28997ZM17.5161 5.95652C18.1049 5.95652 18.5825 6.07746 18.9654 6.30084L19.3451 5.64988C18.8237 5.34573 18.2086 5.2029 17.5161 5.2029V5.95652ZM18.9761 6.30685C19.4151 6.54413 19.7579 6.79823 20.0137 7.06506L20.5578 6.54363C20.2357 6.20756 19.8249 5.90901 19.3345 5.64388L18.9761 6.30685ZM20.0099 7.06111C20.3241 7.39861 20.5863 7.777 20.7965 8.1975L21.4706 7.86047C21.2286 7.37662 20.9255 6.93859 20.5615 6.54758L20.0099 7.06111ZM21.4779 8.18202C21.663 7.76539 21.9054 7.3905 22.2054 7.05589L21.6443 6.55281C21.2911 6.9467 21.006 7.38823 20.7892 7.87595L21.4779 8.18202ZM22.1969 7.06506C22.4543 6.79642 22.7927 6.54184 23.2194 6.30475L22.8534 5.64597C22.3758 5.9113 21.9731 6.20937 21.6528 6.54363L22.1969 7.06506ZM23.2263 6.30084C23.6062 6.07923 24.1013 5.95652 24.7321 5.95652V5.2029C24.0064 5.2029 23.371 5.34396 22.8466 5.64988L23.2263 6.30084ZM24.7321 5.95652C25.2038 5.95652 25.6511 6.05715 26.078 6.25938L26.4006 5.5783C25.873 5.32836 25.3155 5.2029 24.7321 5.2029V5.95652ZM26.078 6.25938C26.5094 6.46373 26.8905 6.74758 27.2224 7.11391L27.7809 6.60783C27.3843 6.1703 26.9238 5.82612 26.4006 5.5783L26.078 6.25938ZM27.2224 7.11391C27.5503 7.47564 27.8158 7.92237 28.0149 8.46106L28.7218 8.19981C28.4938 7.58294 28.1815 7.04996 27.7809 6.60783L27.2224 7.11391ZM28.0149 8.46106C28.2112 8.99225 28.3118 9.58171 28.3118 10.2333H29.0654C29.0654 9.50331 28.9525 8.82417 28.7218 8.19981L28.0149 8.46106ZM28.3118 10.2333V15H29.0654V10.2333H28.3118ZM28.6886 14.6232H27.7654V15.3768H28.6886V14.6232ZM28.1422 15V10.2333H27.3886V15H28.1422ZM28.1422 10.2333C28.1422 9.54901 28.0215 8.93742 27.7651 8.41052L27.0874 8.7402C27.2833 9.14277 27.3886 9.63649 27.3886 10.2333H28.1422ZM27.7668 8.41405C27.5239 7.9012 27.2209 7.47008 26.8529 7.13036L26.3417 7.68413C26.6268 7.94731 26.8765 8.29494 27.0858 8.73667L27.7668 8.41405ZM26.8583 7.13542C26.516 6.80684 26.1459 6.55351 25.7472 6.38264L25.4503 7.07533C25.755 7.20591 26.0506 7.40475 26.3364 7.67907L26.8583 7.13542ZM25.7518 6.38465C25.3884 6.22316 25.0445 6.12609 24.7321 6.12609V6.87971C24.8969 6.87971 25.1308 6.93336 25.4457 7.07332L25.7518 6.38465ZM24.7321 6.12609C24.2071 6.12609 23.7173 6.24738 23.2697 6.49279L23.6321 7.15358C23.9633 6.97194 24.3276 6.87971 24.7321 6.87971V6.12609ZM23.2697 6.49279C22.8355 6.73094 22.4636 7.04686 22.1561 7.43821L22.7487 7.90382C22.9938 7.59179 23.2876 7.34249 23.6321 7.15358L23.2697 6.49279ZM22.1561 7.43821C21.8513 7.82616 21.6178 8.26708 21.4543 8.75765L22.1693 8.99597C22.3072 8.5822 22.5008 8.21925 22.7487 7.90382L22.1561 7.43821ZM21.4554 8.7546C21.2911 9.23355 21.2089 9.72702 21.2089 10.2333H21.9625C21.9625 9.81018 22.031 9.3993 22.1682 8.99902L21.4554 8.7546ZM21.2089 10.2333V15H21.9625V10.2333H21.2089ZM21.5857 14.6232H20.6625V15.3768H21.5857V14.6232ZM21.0393 15V10.2333H20.2857V15H21.0393ZM21.0393 10.2333C21.0393 9.70411 20.9578 9.19279 20.7939 8.70113L20.079 8.93945C20.2165 9.35213 20.2857 9.78284 20.2857 10.2333H21.0393ZM20.7939 8.70113C20.6301 8.20959 20.3956 7.77282 20.088 7.39531L19.5037 7.87135C19.7488 8.1721 19.9414 8.52664 20.079 8.93945L20.7939 8.70113ZM20.0921 7.40053C19.7832 7.00728 19.4085 6.69577 18.9701 6.4695L18.6245 7.13919C18.9648 7.31486 19.2559 7.55601 19.4996 7.86613L20.0921 7.40053ZM18.9701 6.4695C18.5241 6.23929 18.0373 6.12609 17.5161 6.12609V6.87971C17.9245 6.87971 18.2918 6.96747 18.6245 7.13919L18.9701 6.4695ZM17.5161 6.12609C17.0483 6.12609 16.6028 6.24382 16.1848 6.47442L16.5489 7.13427C16.8594 6.96294 17.1802 6.87971 17.5161 6.87971V6.12609ZM16.1938 6.46966C15.7806 6.68335 15.4206 6.98117 15.1139 7.35763L15.6981 7.83367C15.944 7.53187 16.2246 7.30216 16.54 7.13904L16.1938 6.46966ZM15.1183 7.35225C14.8097 7.71699 14.5688 8.14665 14.3922 8.63579L15.101 8.89175C15.2509 8.47653 15.4496 8.12746 15.6937 7.83905L15.1183 7.35225ZM14.3922 8.63579C14.2127 9.13281 14.1248 9.6664 14.1248 10.2333H14.8785C14.8785 9.74519 14.9539 9.29908 15.101 8.89175L14.3922 8.63579ZM14.5017 9.85652H13.5785V10.6101H14.5017V9.85652ZM38.5238 15H38.147V15.3768H38.5238V15ZM38.2412 8.89565L37.8899 9.03226L37.8934 9.04058L38.2412 8.89565ZM37.4688 7.70869L37.1924 7.96527L37.2023 7.97514L37.4688 7.70869ZM36.2818 6.87971L36.1288 7.22406L36.1322 7.22557L36.2818 6.87971ZM33.305 6.89855L33.4659 7.23928L33.305 6.89855ZM32.118 7.74638L31.8467 7.48477L31.8419 7.48997L32.118 7.74638ZM31.3267 8.95217L30.9823 8.79909L30.9789 8.80725L31.3267 8.95217ZM31.3644 11.7029L31.0237 11.8638L31.0255 11.8675L31.3644 11.7029ZM32.2122 12.8899L31.9458 13.1563V13.1563L32.2122 12.8899ZM33.3992 13.7377L33.2346 14.0766L33.2383 14.0784L33.3992 13.7377ZM34.7746 14.058H35.1514V13.6812H34.7746V14.058ZM34.7746 15V15.3768H35.1514V15H34.7746ZM32.9659 14.642L32.8128 14.9864L32.8193 14.9892L32.9659 14.642ZM31.4775 13.6246L31.7439 13.3582L31.4775 13.6246ZM30.4601 12.1362L30.1129 12.2828L30.1157 12.2893L30.4601 12.1362ZM30.4412 8.55652L30.7911 8.69647L30.4412 8.55652ZM31.3833 7.06812L31.1091 6.80962L31.1089 6.80986L31.3833 7.06812ZM32.8528 6.03188L33.0059 6.37624L33.0093 6.37466L32.8528 6.03188ZM36.5833 6.03188L36.4239 6.37346L36.433 6.37745L36.5833 6.03188ZM38.0905 7.06812L37.8202 7.3307L37.8241 7.33456L38.0905 7.06812ZM39.0891 8.55652L38.7419 8.70312L38.7447 8.70956L39.0891 8.55652ZM39.4659 15V15.3768H39.8427V15H39.4659ZM38.9006 15V10.3275H38.147V15H38.9006ZM38.9006 10.3275C38.9006 9.77668 38.7971 9.25001 38.5891 8.75072L37.8934 9.04058C38.0622 9.44564 38.147 9.87356 38.147 10.3275H38.9006ZM38.5924 8.75908C38.3979 8.25879 38.1117 7.81877 37.7352 7.44225L37.2023 7.97514C37.5041 8.27689 37.7329 8.62817 37.89 9.03223L38.5924 8.75908ZM37.7449 7.45229C37.3808 7.06025 36.9413 6.75438 36.4314 6.53385L36.1322 7.22557C36.5517 7.40697 36.9035 7.65376 37.1926 7.9651L37.7449 7.45229ZM36.4348 6.53537C35.9291 6.31062 35.3738 6.20145 34.7746 6.20145V6.95507C35.2807 6.95507 35.7301 7.04687 36.1288 7.22404L36.4348 6.53537ZM34.7746 6.20145C34.1945 6.20145 33.6493 6.31923 33.1441 6.55782L33.4659 7.23928C33.865 7.05081 34.2995 6.95507 34.7746 6.95507V6.20145ZM33.1441 6.55782C32.6516 6.79037 32.2184 7.09949 31.8468 7.48482L32.3893 8.00793C32.696 7.68988 33.054 7.43379 33.4659 7.23928L33.1441 6.55782ZM31.8419 7.48997C31.4862 7.87306 31.1997 8.31017 30.9824 8.79914L31.6711 9.10521C31.8557 8.68982 32.0967 8.32307 32.3942 8.00278L31.8419 7.48997ZM30.9789 8.80725C30.7724 9.30282 30.6673 9.81039 30.6673 10.3275H31.4209C31.4209 9.91521 31.5042 9.50587 31.6746 9.0971L30.9789 8.80725ZM30.6673 10.3275C30.6673 10.8521 30.7882 11.3652 31.0237 11.8638L31.7051 11.542C31.5135 11.1362 31.4209 10.7325 31.4209 10.3275H30.6673ZM31.0255 11.8675C31.2577 12.3456 31.565 12.7755 31.9458 13.1563L32.4787 12.6234C32.1561 12.3009 31.8982 11.9395 31.7034 11.5383L31.0255 11.8675ZM31.9458 13.1563C32.3266 13.5371 32.7565 13.8444 33.2346 14.0766L33.5638 13.3987C33.1626 13.2039 32.8012 12.946 32.4787 12.6234L31.9458 13.1563ZM33.2383 14.0784C33.7369 14.3139 34.25 14.4348 34.7746 14.4348V13.6812C34.3696 13.6812 33.9659 13.5886 33.5601 13.3969L33.2383 14.0784ZM34.3977 14.058V15H35.1514V14.058H34.3977ZM34.7746 14.6232C34.1821 14.6232 33.6292 14.5131 33.1124 14.2949L32.8193 14.9892C33.4329 15.2483 34.0859 15.3768 34.7746 15.3768V14.6232ZM33.1189 14.2977C32.5949 14.0648 32.1375 13.7517 31.7439 13.3582L31.211 13.8911C31.6716 14.3516 32.2064 14.7168 32.8128 14.9864L33.1189 14.2977ZM31.7439 13.3582C31.3503 12.9646 31.0373 12.5072 30.8044 11.9832L30.1157 12.2893C30.3853 12.8957 30.7505 13.4305 31.211 13.8911L31.7439 13.3582ZM30.8072 11.9897C30.589 11.4729 30.4789 10.92 30.4789 10.3275H29.7253C29.7253 11.0162 29.8538 11.6692 30.1129 12.2828L30.8072 11.9897ZM30.4789 10.3275C30.4789 9.75947 30.583 9.21667 30.7911 8.69647L30.0914 8.41658C29.8473 9.0268 29.7253 9.66468 29.7253 10.3275H30.4789ZM30.7911 8.69647C31.0003 8.17337 31.2893 7.71775 31.6576 7.32637L31.1089 6.80986C30.6734 7.27258 30.3343 7.80924 30.0914 8.41658L30.7911 8.69647ZM31.6574 7.32661C32.0368 6.92423 32.4852 6.60762 33.0059 6.37622L32.6998 5.68755C32.09 5.95856 31.5587 6.33277 31.1091 6.80962L31.6574 7.32661ZM33.0093 6.37466C33.5329 6.13563 34.1193 6.01304 34.7746 6.01304V5.25942C34.023 5.25942 33.3283 5.4006 32.6963 5.6891L33.0093 6.37466ZM34.7746 6.01304C35.3616 6.01304 35.91 6.1335 36.4239 6.37334L36.7426 5.69042C36.1261 5.40273 35.4687 5.25942 34.7746 5.25942V6.01304ZM36.433 6.37745C36.967 6.60963 37.4284 6.92728 37.8202 7.33067L38.3608 6.80556C37.8985 6.32973 37.355 5.95655 36.7335 5.68632L36.433 6.37745ZM37.8241 7.33456C38.2162 7.72668 38.5219 8.18193 38.7419 8.70309L39.4362 8.40995C39.1789 7.80067 38.8189 7.26366 38.3569 6.80167L37.8241 7.33456ZM38.7447 8.70956C38.9746 9.22685 39.0891 9.76507 39.0891 10.3275H39.8427C39.8427 9.65908 39.7059 9.01663 39.4334 8.40348L38.7447 8.70956ZM39.0891 10.3275V15H39.8427V10.3275H39.0891ZM39.4659 14.6232H38.5238V15.3768H39.4659V14.6232ZM40.8826 10.2333H40.5058V10.6101H40.8826V10.2333ZM41.2029 8.53768L40.853 8.39773L40.8514 8.40188L41.2029 8.53768ZM42.1637 7.04927L42.4342 7.31174L42.4379 7.30777L42.1637 7.04927ZM43.671 5.9942L43.5173 5.65017L43.671 5.9942ZM47.571 5.9942L47.4116 6.33567L47.4145 6.33698L47.571 5.9942ZM49.0406 7.04927L48.7624 7.30356L48.7662 7.30753L49.0406 7.04927ZM49.9637 8.53768L49.6111 8.6709L49.615 8.68035L49.9637 8.53768ZM50.3029 15V15.3768H50.6797V15H50.3029ZM49.2855 15H48.9087V15.3768H49.2855V15ZM49.0029 8.82029L49.3492 8.67186V8.67186L49.0029 8.82029ZM48.2304 7.67101L48.4969 7.40457V7.40457L48.2304 7.67101ZM47.0811 6.89855L46.9244 7.24135L46.9327 7.24489L47.0811 6.89855ZM44.1043 6.89855L44.2459 7.24785L44.2539 7.24441L44.1043 6.89855ZM42.8985 7.67101L42.6371 7.39954L42.6321 7.40457L42.8985 7.67101ZM41.8811 10.2333V10.6101H42.2579V10.2333H41.8811ZM41.2594 10.2333C41.2594 9.70319 41.3571 9.18394 41.5544 8.67348L40.8514 8.40188C40.6216 8.99673 40.5058 9.60792 40.5058 10.2333H41.2594ZM41.5527 8.67763C41.761 8.15696 42.0547 7.70269 42.4341 7.31171L41.8933 6.78683C41.4438 7.24997 41.0969 7.78797 40.853 8.39774L41.5527 8.67763ZM42.4379 7.30777C42.8159 6.90682 43.2765 6.58316 43.8247 6.33823L43.5173 5.65017C42.8848 5.93278 42.3405 6.3125 41.8896 6.79078L42.4379 7.30777ZM43.8247 6.33823C44.3601 6.09902 44.9723 5.97536 45.6681 5.97536V5.22174C44.8818 5.22174 44.1626 5.36185 43.5173 5.65017L43.8247 6.33823ZM45.6681 5.97536C46.3235 5.97536 46.9023 6.09799 47.4116 6.33566L47.7303 5.65274C47.1092 5.36288 46.4195 5.22174 45.6681 5.22174V5.97536ZM47.4145 6.33698C47.9493 6.58113 48.3969 6.90373 48.7625 7.30354L49.3187 6.79501C48.8803 6.31559 48.3482 5.93481 47.7275 5.65142L47.4145 6.33698ZM48.7662 7.30753C49.133 7.69733 49.4147 8.15063 49.6112 8.67085L50.3162 8.40452C50.0857 7.7943 49.7519 7.25532 49.3149 6.79102L48.7662 7.30753ZM49.615 8.68035C49.8232 9.18927 49.9261 9.70613 49.9261 10.2333H50.6797C50.6797 9.60498 50.5565 8.9914 50.3125 8.39501L49.615 8.68035ZM49.9261 10.2333V15H50.6797V10.2333H49.9261ZM50.3029 14.6232H49.2855V15.3768H50.3029V14.6232ZM49.6623 15V10.2333H48.9087V15H49.6623ZM49.6623 10.2333C49.6623 9.68251 49.5587 9.16073 49.3492 8.67186L48.6565 8.96872C48.8238 9.35908 48.9087 9.77933 48.9087 10.2333H49.6623ZM49.3492 8.67186C49.1426 8.18978 48.8585 7.76624 48.4969 7.40457L47.964 7.93746C48.2554 8.22892 48.4863 8.57157 48.6565 8.96872L49.3492 8.67186ZM48.4969 7.40457C48.1352 7.04289 47.7116 6.75881 47.2296 6.55221L46.9327 7.24489C47.3299 7.4151 47.6725 7.646 47.964 7.93746L48.4969 7.40457ZM47.2378 6.55585C46.7471 6.33152 46.2224 6.22029 45.6681 6.22029V6.97391C46.1186 6.97391 46.536 7.06365 46.9245 7.24125L47.2378 6.55585ZM45.6681 6.22029C45.0461 6.22029 44.4729 6.32862 43.9548 6.55269L44.2539 7.24441C44.6652 7.06655 45.1345 6.97391 45.6681 6.97391V6.22029ZM43.9628 6.54934C43.4564 6.75461 43.0131 7.03756 42.6372 7.39959L43.1599 7.94244C43.4622 7.65132 43.8228 7.4193 44.2459 7.24776L43.9628 6.54934ZM42.6321 7.40457C42.2685 7.76814 41.9893 8.19458 41.795 8.68035L42.4948 8.96023C42.6521 8.56678 42.8754 8.22703 43.165 7.93746L42.6321 7.40457ZM41.795 8.68035C41.6003 9.16714 41.5043 9.68594 41.5043 10.2333H42.2579C42.2579 9.77589 42.3378 9.35267 42.4948 8.96023L41.795 8.68035ZM41.8811 9.85652H40.8826V10.6101H41.8811V9.85652Z" fill="#67ADFF"/>
</svg>
