<svg width="41" height="30" viewBox="0 0 41 30" fill="none" xmlns="http://www.w3.org/2000/svg">
<path d="M4.11919 10.761C4.11919 10.761 20.8254 5.51761 20.2587 23.965C2.2892 28.1748 4.11919 10.761 4.11919 10.761Z" fill="#67ADFF" fill-opacity="0.75"/>
<path d="M10.8573 3.14193C10.8573 3.14193 28.8941 6.56572 20.3184 24.0194C1.54103 18.9614 10.8573 3.14193 10.8573 3.14193Z" fill="#67ADFF" fill-opacity="0.6"/>
<path d="M20.2873 0C20.2873 0 5.27198 11.072 20.2873 24.0246C35.3027 11.072 20.2873 0 20.2873 0Z" fill="#67ADFF" fill-opacity="0.15"/>
<path d="M29.7939 3.15951C29.7939 3.15951 11.757 6.5833 20.3327 24.037C39.1101 18.979 29.7939 3.15951 29.7939 3.15951Z" fill="#67ADFF" fill-opacity="0.5"/>
<path d="M36.2588 11.0349C36.2588 11.0349 19.5526 5.79154 20.1193 24.2389C38.0888 28.4488 36.2588 11.0349 36.2588 11.0349Z" fill="#67ADFF" fill-opacity="0.75"/>
</svg>
