<svg width="291" height="191" viewBox="0 0 291 191" fill="none" xmlns="http://www.w3.org/2000/svg">
<path d="M69.1683 43.3952C69.1683 43.3952 136.987 22.2507 134.687 96.6417C61.7395 113.618 69.1683 43.3952 69.1683 43.3952Z" fill="#67ADFF" fill-opacity="0.15"/>
<path d="M96.5214 12.6702C96.5214 12.6702 169.742 26.477 134.929 96.8609C58.7021 76.464 96.5214 12.6702 96.5214 12.6702Z" fill="#67ADFF" fill-opacity="0.35"/>
<path d="M134.803 0C134.803 0 73.8484 44.649 134.803 96.8816C195.758 44.649 134.803 0 134.803 0Z" fill="#67ADFF" fill-opacity="0.5"/>
<path d="M173.394 12.741C173.394 12.741 100.174 26.5478 134.987 96.9317C211.213 76.5348 173.394 12.741 173.394 12.741Z" fill="#67ADFF" fill-opacity="0.6"/>
<path d="M200.3 43.3952C200.3 43.3952 132.481 22.2507 134.781 96.6417C207.728 113.618 200.3 43.3952 200.3 43.3952Z" fill="#67ADFF" fill-opacity="0.75"/>
<path d="M0.1 178.95L15.35 141.15H17.8L32.95 178.95H30L16.6 144.75L3.15 178.95H0.1ZM36.0352 166.35C36.0352 164.65 36.3018 163.05 36.8352 161.55C37.3685 160.05 38.1018 158.75 39.0352 157.65C40.0018 156.517 41.1185 155.633 42.3852 155C43.6518 154.333 45.0185 154 46.4852 154C48.1852 154 49.6352 154.35 50.8352 155.05C52.0685 155.717 53.0685 156.45 53.8352 157.25C54.7352 158.217 55.4852 159.3 56.0852 160.5C56.6185 159.3 57.3185 158.217 58.1852 157.25C58.9518 156.45 59.9352 155.717 61.1352 155.05C62.3352 154.35 63.8352 154 65.6352 154C67.0352 154 68.3685 154.3 69.6352 154.9C70.9018 155.5 72.0185 156.333 72.9852 157.4C73.9518 158.467 74.7185 159.767 75.2852 161.3C75.8518 162.833 76.1352 164.517 76.1352 166.35V179H73.6852V166.35C73.6852 164.65 73.3852 163.183 72.7852 161.95C72.1852 160.683 71.4518 159.65 70.5852 158.85C69.7518 158.05 68.8685 157.45 67.9352 157.05C67.0352 156.65 66.2685 156.45 65.6352 156.45C64.4018 156.45 63.2685 156.733 62.2352 157.3C61.2018 157.867 60.3185 158.617 59.5852 159.55C58.8518 160.483 58.2852 161.55 57.8852 162.75C57.4852 163.917 57.2852 165.117 57.2852 166.35V179H54.8352V166.35C54.8352 165.05 54.6352 163.8 54.2352 162.6C53.8352 161.4 53.2685 160.35 52.5352 159.45C51.8018 158.517 50.9185 157.783 49.8852 157.25C48.8518 156.717 47.7185 156.45 46.4852 156.45C45.4185 156.45 44.4018 156.717 43.4352 157.25C42.4685 157.75 41.6185 158.45 40.8852 159.35C40.1518 160.217 39.5685 161.25 39.1352 162.45C38.7018 163.65 38.4852 164.95 38.4852 166.35H36.0352ZM102.236 179V166.6C102.236 165.267 101.986 164 101.486 162.8C101.02 161.6 100.336 160.55 99.4363 159.65C98.5697 158.717 97.5197 157.983 96.2863 157.45C95.0863 156.917 93.753 156.65 92.2863 156.65C90.8863 156.65 89.5863 156.933 88.3863 157.5C87.1863 158.067 86.1363 158.817 85.2363 159.75C84.3697 160.683 83.6697 161.75 83.1363 162.95C82.6363 164.15 82.3863 165.367 82.3863 166.6C82.3863 167.833 82.6697 169.05 83.2363 170.25C83.803 171.417 84.553 172.467 85.4863 173.4C86.4197 174.333 87.4697 175.083 88.6363 175.65C89.8363 176.217 91.053 176.5 92.2863 176.5V179C90.5863 179 88.9863 178.683 87.4863 178.05C85.9863 177.383 84.6697 176.483 83.5363 175.35C82.403 174.217 81.503 172.9 80.8363 171.4C80.203 169.9 79.8863 168.3 79.8863 166.6C79.8863 164.967 80.1863 163.4 80.7863 161.9C81.3863 160.4 82.2197 159.083 83.2863 157.95C84.3863 156.783 85.6863 155.867 87.1863 155.2C88.7197 154.5 90.4197 154.15 92.2863 154.15C93.9863 154.15 95.5863 154.5 97.0863 155.2C98.6197 155.867 99.953 156.783 101.086 157.95C102.22 159.083 103.103 160.4 103.736 161.9C104.403 163.4 104.736 164.967 104.736 166.6V179H102.236ZM108.496 166.35C108.496 164.817 108.779 163.317 109.346 161.85C109.946 160.35 110.796 159.033 111.896 157.9C112.996 156.733 114.329 155.8 115.896 155.1C117.463 154.4 119.229 154.05 121.196 154.05C123.063 154.05 124.746 154.4 126.246 155.1C127.779 155.8 129.079 156.733 130.146 157.9C131.213 159.033 132.029 160.35 132.596 161.85C133.196 163.317 133.496 164.817 133.496 166.35V179H130.796V166.35C130.796 165.017 130.546 163.767 130.046 162.6C129.546 161.433 128.863 160.417 127.996 159.55C127.129 158.683 126.113 158 124.946 157.5C123.779 156.967 122.529 156.7 121.196 156.7C119.663 156.7 118.279 156.967 117.046 157.5C115.813 158 114.746 158.683 113.846 159.55C112.979 160.417 112.313 161.433 111.846 162.6C111.379 163.767 111.146 165.017 111.146 166.35H108.496Z" fill="#67ADFF"/>
<path d="M0.1 178.95L-0.827373 178.576L-1.38175 179.95H0.1V178.95ZM15.35 141.15V140.15H14.6751L14.4226 140.776L15.35 141.15ZM17.8 141.15L18.7282 140.778L18.4765 140.15H17.8V141.15ZM32.95 178.95V179.95H34.4281L33.8782 178.578L32.95 178.95ZM30 178.95L29.0689 179.315L29.3178 179.95H30V178.95ZM16.6 144.75L17.5311 144.385L16.6017 142.013L15.6694 144.384L16.6 144.75ZM3.15 178.95V179.95H3.83128L4.08062 179.316L3.15 178.95ZM1.02737 179.324L16.2774 141.524L14.4226 140.776L-0.827373 178.576L1.02737 179.324ZM15.35 142.15H17.8V140.15H15.35V142.15ZM16.8718 141.522L32.0218 179.322L33.8782 178.578L18.7282 140.778L16.8718 141.522ZM32.95 177.95H30V179.95H32.95V177.95ZM30.9311 178.585L17.5311 144.385L15.6689 145.115L29.0689 179.315L30.9311 178.585ZM15.6694 144.384L2.21938 178.584L4.08062 179.316L17.5306 145.116L15.6694 144.384ZM3.15 177.95H0.1V179.95H3.15V177.95ZM36.0352 166.35H35.0352V167.35H36.0352V166.35ZM36.8352 161.55L37.7774 161.885L36.8352 161.55ZM39.0352 157.65L38.2743 157.001L38.2726 157.003L39.0352 157.65ZM42.3852 155L42.8324 155.894L42.8417 155.89L42.8509 155.885L42.3852 155ZM50.8352 155.05L50.3313 155.914L50.3453 155.922L50.3596 155.93L50.8352 155.05ZM53.8352 157.25L54.5671 156.569L54.5621 156.563L54.5571 156.558L53.8352 157.25ZM56.0852 160.5L55.1907 160.947L56.1384 162.842L56.999 160.906L56.0852 160.5ZM58.1852 157.25L57.4632 156.558L57.4517 156.57L57.4406 156.582L58.1852 157.25ZM61.1352 155.05L61.6208 155.924L61.63 155.919L61.639 155.914L61.1352 155.05ZM69.6352 154.9L70.0632 153.996V153.996L69.6352 154.9ZM75.2852 161.3L74.3472 161.647L75.2852 161.3ZM76.1352 179V180H77.1352V179H76.1352ZM73.6852 179H72.6852V180H73.6852V179ZM72.7852 161.95L71.8814 162.378L71.8859 162.387L72.7852 161.95ZM70.5852 158.85L69.8926 159.571L69.8997 159.578L69.9069 159.585L70.5852 158.85ZM67.9352 157.05L67.529 157.964L67.5412 157.969L67.9352 157.05ZM62.2352 157.3L62.716 158.177L62.2352 157.3ZM59.5852 159.55L58.7988 158.932L59.5852 159.55ZM57.8852 162.75L58.8311 163.074L58.8338 163.066L57.8852 162.75ZM57.2852 179V180H58.2852V179H57.2852ZM54.8352 179H53.8352V180H54.8352V179ZM54.2352 162.6L53.2865 162.916L54.2352 162.6ZM52.5352 159.45L51.7488 160.068L51.7543 160.075L51.7599 160.082L52.5352 159.45ZM49.8852 157.25L49.4265 158.139L49.8852 157.25ZM43.4352 157.25L43.8946 158.138L43.9065 158.132L43.9182 158.126L43.4352 157.25ZM40.8852 159.35L41.6485 159.996L41.6545 159.989L41.6604 159.982L40.8852 159.35ZM39.1352 162.45L38.1946 162.11L39.1352 162.45ZM38.4852 166.35V167.35H39.4852V166.35H38.4852ZM37.0352 166.35C37.0352 164.756 37.2848 163.27 37.7774 161.885L35.8929 161.215C35.3188 162.83 35.0352 164.544 35.0352 166.35H37.0352ZM37.7774 161.885C38.2744 160.487 38.9503 159.296 39.7977 158.297L38.2726 157.003C37.2533 158.204 36.4626 159.613 35.8929 161.215L37.7774 161.885ZM39.796 158.299C40.6802 157.262 41.6918 156.465 42.8324 155.894L41.9379 154.106C40.5452 154.802 39.3234 155.771 38.2743 157.001L39.796 158.299ZM42.8509 155.885C43.9703 155.296 45.1766 155 46.4852 155V153C44.8604 153 43.3333 153.371 41.9194 154.115L42.8509 155.885ZM46.4852 155C48.0475 155 49.315 155.321 50.3313 155.914L51.339 154.186C49.9553 153.379 48.3228 153 46.4852 153V155ZM50.3596 155.93C51.5246 156.559 52.4345 157.234 53.1132 157.942L54.5571 156.558C53.7024 155.666 52.6123 154.874 51.3107 154.17L50.3596 155.93ZM53.1033 157.931C53.9371 158.827 54.6328 159.831 55.1907 160.947L56.9796 160.053C56.3376 158.769 55.5332 157.606 54.5671 156.569L53.1033 157.931ZM56.999 160.906C57.4904 159.8 58.1336 158.806 58.9297 157.918L57.4406 156.582C56.5034 157.628 55.7466 158.8 55.1713 160.094L56.999 160.906ZM58.9071 157.942C59.5904 157.229 60.4883 156.553 61.6208 155.924L60.6495 154.176C59.382 154.88 58.3133 155.671 57.4632 156.558L58.9071 157.942ZM61.639 155.914C62.6473 155.326 63.9611 155 65.6352 155V153C63.7093 153 62.0231 153.374 60.6313 154.186L61.639 155.914ZM65.6352 155C66.8869 155 68.0741 155.267 69.2071 155.804L70.0632 153.996C68.6629 153.333 67.1834 153 65.6352 153V155ZM69.2071 155.804C70.352 156.346 71.3631 157.099 72.2442 158.072L73.7261 156.728C72.6739 155.567 71.4517 154.654 70.0632 153.996L69.2071 155.804ZM72.2442 158.072C73.1142 159.032 73.8188 160.217 74.3472 161.647L76.2232 160.953C75.6181 159.316 74.7895 157.902 73.7261 156.728L72.2442 158.072ZM74.3472 161.647C74.8681 163.056 75.1352 164.621 75.1352 166.35H77.1352C77.1352 164.413 76.8355 162.61 76.2232 160.953L74.3472 161.647ZM75.1352 166.35V179H77.1352V166.35H75.1352ZM76.1352 178H73.6852V180H76.1352V178ZM74.6852 179V166.35H72.6852V179H74.6852ZM74.6852 166.35C74.6852 164.534 74.3647 162.911 73.6844 161.513L71.8859 162.387C72.4057 163.456 72.6852 164.766 72.6852 166.35H74.6852ZM73.6889 161.522C73.0442 160.161 72.2401 159.017 71.2634 158.115L69.9069 159.585C70.6635 160.283 71.3261 161.206 71.8814 162.378L73.6889 161.522ZM71.2777 158.129C70.3694 157.257 69.3872 156.584 68.3291 156.131L67.5412 157.969C68.3498 158.316 69.1343 158.843 69.8926 159.571L71.2777 158.129ZM68.3413 156.136C67.377 155.708 66.4644 155.45 65.6352 155.45V157.45C66.0726 157.45 66.6933 157.592 67.529 157.964L68.3413 156.136ZM65.6352 155.45C64.2418 155.45 62.942 155.772 61.7543 156.423L62.716 158.177C63.595 157.695 64.5618 157.45 65.6352 157.45V155.45ZM61.7543 156.423C60.6019 157.055 59.6149 157.894 58.7988 158.932L60.3715 160.168C61.0221 159.34 61.8018 158.678 62.716 158.177L61.7543 156.423ZM58.7988 158.932C57.9899 159.962 57.3704 161.132 56.9365 162.434L58.8338 163.066C59.1999 161.968 59.7138 161.005 60.3715 160.168L58.7988 158.932ZM56.9392 162.426C56.5034 163.697 56.2852 165.006 56.2852 166.35H58.2852C58.2852 165.227 58.4669 164.137 58.8311 163.074L56.9392 162.426ZM56.2852 166.35V179H58.2852V166.35H56.2852ZM57.2852 178H54.8352V180H57.2852V178ZM55.8352 179V166.35H53.8352V179H55.8352ZM55.8352 166.35C55.8352 164.946 55.6188 163.589 55.1838 162.284L53.2865 162.916C53.6515 164.011 53.8352 165.154 53.8352 166.35H55.8352ZM55.1838 162.284C54.749 160.979 54.1267 159.82 53.3104 158.818L51.7599 160.082C52.4103 160.88 52.9213 161.821 53.2865 162.916L55.1838 162.284ZM53.3215 158.832C52.5015 157.789 51.5072 156.962 50.3438 156.361L49.4265 158.139C50.3298 158.605 51.1022 159.245 51.7488 160.068L53.3215 158.832ZM50.3438 156.361C49.1601 155.75 47.8681 155.45 46.4852 155.45V157.45C47.5689 157.45 48.5436 157.683 49.4265 158.139L50.3438 156.361ZM46.4852 155.45C45.2435 155.45 44.0613 155.762 42.9521 156.374L43.9182 158.126C44.7424 157.671 45.5935 157.45 46.4852 157.45V155.45ZM42.9757 156.362C41.8793 156.929 40.924 157.719 40.1099 158.718L41.6604 159.982C42.313 159.181 43.0576 158.571 43.8946 158.138L42.9757 156.362ZM40.1218 158.704C39.3027 159.672 38.6634 160.812 38.1946 162.11L40.0757 162.79C40.4736 161.688 41.0009 160.761 41.6485 159.996L40.1218 158.704ZM38.1946 162.11C37.7183 163.429 37.4852 164.845 37.4852 166.35H39.4852C39.4852 165.055 39.6854 163.871 40.0757 162.79L38.1946 162.11ZM38.4852 165.35H36.0352V167.35H38.4852V165.35ZM102.236 179H101.236V180H102.236V179ZM101.486 162.8L100.554 163.162L100.559 163.174L100.563 163.185L101.486 162.8ZM99.4363 159.65L98.7035 160.33L98.7161 160.344L98.7292 160.357L99.4363 159.65ZM96.2863 157.45L95.8802 158.364L95.8894 158.368L96.2863 157.45ZM88.3863 157.5L88.8133 158.404V158.404L88.3863 157.5ZM85.2363 159.75L84.5165 159.056L84.5099 159.063L84.5035 159.07L85.2363 159.75ZM83.1363 162.95L82.2225 162.544L82.2178 162.555L82.2132 162.565L83.1363 162.95ZM83.2363 170.25L82.332 170.677L82.3368 170.687L83.2363 170.25ZM85.4863 173.4L84.7792 174.107L85.4863 173.4ZM88.6363 175.65L88.1994 176.55L88.2093 176.554L88.6363 175.65ZM92.2863 176.5H93.2863V175.5H92.2863V176.5ZM92.2863 179V180H93.2863V179H92.2863ZM87.4863 178.05L87.0802 178.964L87.0887 178.968L87.0974 178.971L87.4863 178.05ZM83.5363 175.35L84.2434 174.643L83.5363 175.35ZM80.8363 171.4L79.9151 171.789L79.9187 171.798L79.9225 171.806L80.8363 171.4ZM80.7863 161.9L81.7148 162.271L80.7863 161.9ZM83.2863 157.95L82.5587 157.264L82.5581 157.265L83.2863 157.95ZM87.1863 155.2L87.5925 156.114L87.6016 156.11L87.1863 155.2ZM97.0863 155.2L96.6634 156.106L96.6755 156.112L96.6876 156.117L97.0863 155.2ZM101.086 157.95L100.369 158.647L100.374 158.652L100.379 158.657L101.086 157.95ZM103.736 161.9L102.815 162.289L102.819 162.298L102.823 162.306L103.736 161.9ZM104.736 179V180H105.736V179H104.736ZM103.236 179V166.6H101.236V179H103.236ZM103.236 166.6C103.236 165.138 102.962 163.74 102.409 162.415L100.563 163.185C101.011 164.26 101.236 165.395 101.236 166.6H103.236ZM102.418 162.438C101.902 161.11 101.143 159.942 100.143 158.943L98.7292 160.357C99.53 161.158 100.137 162.09 100.554 163.162L102.418 162.438ZM100.169 158.97C99.203 157.929 98.0367 157.117 96.6832 156.532L95.8894 158.368C97.0027 158.849 97.9363 159.504 98.7035 160.33L100.169 158.97ZM96.6925 156.536C95.3504 155.94 93.8765 155.65 92.2863 155.65V157.65C93.6295 157.65 94.8222 157.894 95.8802 158.364L96.6925 156.536ZM92.2863 155.65C90.747 155.65 89.3002 155.963 87.9593 156.596L88.8133 158.404C89.8725 157.904 91.0257 157.65 92.2863 157.65V155.65ZM87.9593 156.596C86.6524 157.213 85.5026 158.033 84.5165 159.056L85.9562 160.444C86.7701 159.6 87.7202 158.92 88.8133 158.404L87.9593 156.596ZM84.5035 159.07C83.5595 160.086 82.7992 161.246 82.2225 162.544L84.0501 163.356C84.5401 162.254 85.1798 161.28 85.9691 160.43L84.5035 159.07ZM82.2132 162.565C81.6653 163.881 81.3863 165.228 81.3863 166.6H83.3863C83.3863 165.506 83.6074 164.419 84.0594 163.335L82.2132 162.565ZM81.3863 166.6C81.3863 167.992 81.7072 169.354 82.3321 170.677L84.1406 169.823C83.6321 168.746 83.3863 167.675 83.3863 166.6H81.3863ZM82.3368 170.687C82.953 171.956 83.7686 173.096 84.7792 174.107L86.1934 172.693C85.3374 171.837 84.653 170.878 84.1358 169.813L82.3368 170.687ZM84.7792 174.107C85.7899 175.118 86.9308 175.933 88.1994 176.55L89.0732 174.75C88.0085 174.233 87.0495 173.549 86.1934 172.693L84.7792 174.107ZM88.2093 176.554C89.5325 177.179 90.8943 177.5 92.2863 177.5V175.5C91.2117 175.5 90.1401 175.254 89.0633 174.746L88.2093 176.554ZM91.2863 176.5V179H93.2863V176.5H91.2863ZM92.2863 178C90.7139 178 89.2468 177.708 87.8753 177.129L87.0974 178.971C88.7259 179.659 90.4587 180 92.2863 180V178ZM87.8925 177.136C86.5019 176.518 85.2879 175.687 84.2434 174.643L82.8292 176.057C84.0515 177.279 85.4708 178.249 87.0802 178.964L87.8925 177.136ZM84.2434 174.643C83.199 173.598 82.3682 172.384 81.7501 170.994L79.9225 171.806C80.6378 173.416 81.607 174.835 82.8292 176.057L84.2434 174.643ZM81.7576 171.011C81.1785 169.64 80.8863 168.172 80.8863 166.6H78.8863C78.8863 168.428 79.2275 170.16 79.9151 171.789L81.7576 171.011ZM80.8863 166.6C80.8863 165.092 81.1626 163.652 81.7148 162.271L79.8578 161.529C79.2101 163.148 78.8863 164.841 78.8863 166.6H80.8863ZM81.7148 162.271C82.2701 160.883 83.0369 159.674 84.0145 158.635L82.5581 157.265C81.4024 158.493 80.5026 159.917 79.8578 161.529L81.7148 162.271ZM84.0139 158.636C85.0208 157.568 86.2107 156.728 87.5925 156.114L86.7802 154.286C85.1619 155.005 83.7519 155.999 82.5587 157.264L84.0139 158.636ZM87.6016 156.11C88.9912 155.475 90.5475 155.15 92.2863 155.15V153.15C90.2919 153.15 88.4481 153.525 86.771 154.29L87.6016 156.11ZM92.2863 155.15C93.8443 155.15 95.2995 155.47 96.6634 156.106L97.5092 154.294C95.8732 153.53 94.1284 153.15 92.2863 153.15V155.15ZM96.6876 156.117C98.1048 156.733 99.3291 157.576 100.369 158.647L101.804 157.253C100.577 155.99 99.1345 155 97.4851 154.283L96.6876 156.117ZM100.379 158.657C101.42 159.698 102.231 160.906 102.815 162.289L104.658 161.511C103.975 159.894 103.019 158.469 101.793 157.243L100.379 158.657ZM102.823 162.306C103.433 163.679 103.736 165.107 103.736 166.6H105.736C105.736 164.826 105.373 163.121 104.65 161.494L102.823 162.306ZM103.736 166.6V179H105.736V166.6H103.736ZM104.736 178H102.236V180H104.736V178ZM108.496 166.35H107.496V167.35H108.496V166.35ZM109.346 161.85L108.418 161.479L108.413 161.49L109.346 161.85ZM111.896 157.9L112.614 158.596L112.619 158.591L112.624 158.586L111.896 157.9ZM115.896 155.1L115.488 154.187L115.896 155.1ZM126.246 155.1L125.823 156.006L125.831 156.01L126.246 155.1ZM130.146 157.9L129.408 158.575L129.413 158.58L129.418 158.585L130.146 157.9ZM132.596 161.85L131.661 162.203L131.665 162.216L131.671 162.229L132.596 161.85ZM133.496 179V180H134.496V179H133.496ZM130.796 179H129.796V180H130.796V179ZM130.046 162.6L130.965 162.206V162.206L130.046 162.6ZM127.996 159.55L128.703 158.843L127.996 159.55ZM124.946 157.5L124.53 158.409L124.541 158.414L124.552 158.419L124.946 157.5ZM117.046 157.5L117.422 158.427L117.432 158.422L117.443 158.418L117.046 157.5ZM113.846 159.55L113.152 158.83L113.146 158.836L113.139 158.843L113.846 159.55ZM111.846 162.6L110.918 162.229L111.846 162.6ZM111.146 166.35V167.35H112.146V166.35H111.146ZM109.496 166.35C109.496 164.943 109.755 163.565 110.279 162.21L108.413 161.49C107.803 163.068 107.496 164.69 107.496 166.35H109.496ZM110.275 162.221C110.827 160.84 111.607 159.634 112.614 158.596L111.179 157.204C109.986 158.433 109.065 159.86 108.418 161.479L110.275 162.221ZM112.624 158.586C113.627 157.522 114.849 156.663 116.304 156.013L115.488 154.187C113.81 154.937 112.365 155.945 111.169 157.214L112.624 158.586ZM116.304 156.013C117.725 155.378 119.35 155.05 121.196 155.05V153.05C119.109 153.05 117.201 153.422 115.488 154.187L116.304 156.013ZM121.196 155.05C122.935 155.05 124.472 155.375 125.823 156.006L126.669 154.194C125.021 153.425 123.19 153.05 121.196 153.05V155.05ZM125.831 156.01C127.25 156.658 128.438 157.514 129.408 158.575L130.884 157.225C129.721 155.953 128.309 154.942 126.661 154.19L125.831 156.01ZM129.418 158.585C130.392 159.62 131.139 160.823 131.661 162.203L133.532 161.497C132.92 159.877 132.034 158.447 130.874 157.215L129.418 158.585ZM131.671 162.229C132.223 163.579 132.496 164.951 132.496 166.35H134.496C134.496 164.682 134.169 163.054 133.522 161.471L131.671 162.229ZM132.496 166.35V179H134.496V166.35H132.496ZM133.496 178H130.796V180H133.496V178ZM131.796 179V166.35H129.796V179H131.796ZM131.796 166.35C131.796 164.888 131.521 163.503 130.965 162.206L129.127 162.994C129.571 164.03 129.796 165.145 129.796 166.35H131.796ZM130.965 162.206C130.417 160.927 129.663 159.803 128.703 158.843L127.289 160.257C128.062 161.031 128.675 161.94 129.127 162.994L130.965 162.206ZM128.703 158.843C127.743 157.883 126.619 157.129 125.34 156.581L124.552 158.419C125.606 158.871 126.515 159.484 127.289 160.257L128.703 158.843ZM125.362 156.591C124.06 155.995 122.667 155.7 121.196 155.7V157.7C122.392 157.7 123.499 157.938 124.53 158.409L125.362 156.591ZM121.196 155.7C119.545 155.7 118.024 155.987 116.649 156.582L117.443 158.418C118.535 157.946 119.78 157.7 121.196 157.7V155.7ZM116.67 156.573C115.327 157.118 114.15 157.869 113.152 158.83L114.54 160.27C115.342 159.498 116.299 158.882 117.422 158.427L116.67 156.573ZM113.139 158.843C112.174 159.808 111.433 160.939 110.918 162.229L112.775 162.971C113.192 161.927 113.785 161.026 114.553 160.257L113.139 158.843ZM110.918 162.229C110.401 163.52 110.146 164.897 110.146 166.35H112.146C112.146 165.136 112.358 164.013 112.775 162.971L110.918 162.229ZM111.146 165.35H108.496V167.35H111.146V165.35Z" fill="#67ADFF"/>
<path d="M188.15 179L184.65 169.45H170.5L167.35 179H163.6L175.7 144.9H179.2L191.65 179H188.15ZM171.65 166.35H183.5L177.4 149.8L171.65 166.35ZM197.648 179V142.7H201.048V179H197.648ZM219.654 154.8C221.754 154.8 223.654 155.317 225.354 156.35C227.054 157.383 228.388 158.8 229.354 160.6C230.321 162.367 230.804 164.35 230.804 166.55C230.804 167.183 230.788 167.667 230.754 168H211.504C211.638 170.4 212.421 172.45 213.854 174.15C215.288 175.85 217.238 176.7 219.704 176.7C221.704 176.7 223.354 176.333 224.654 175.6C225.988 174.833 227.054 173.783 227.854 172.45L230.554 174.25C229.454 175.983 228.004 177.35 226.204 178.35C224.404 179.317 222.271 179.8 219.804 179.8C217.538 179.8 215.521 179.267 213.754 178.2C211.988 177.133 210.604 175.65 209.604 173.75C208.604 171.85 208.104 169.7 208.104 167.3C208.104 164.9 208.588 162.75 209.554 160.85C210.554 158.95 211.921 157.467 213.654 156.4C215.421 155.333 217.421 154.8 219.654 154.8ZM227.404 165.2C227.071 162.767 226.254 160.95 224.954 159.75C223.654 158.517 221.888 157.9 219.654 157.9C217.488 157.9 215.704 158.6 214.304 160C212.938 161.367 212.071 163.1 211.704 165.2H227.404ZM249.324 154.8C250.124 154.8 250.89 154.917 251.624 155.15V158.25C250.924 157.917 250.157 157.75 249.324 157.75C247.89 157.75 246.557 158.15 245.324 158.95C244.09 159.75 243.09 160.917 242.324 162.45C241.59 163.95 241.224 165.733 241.224 167.8V179H237.824V155.6H241.224V160.3C242.124 158.567 243.257 157.217 244.624 156.25C246.024 155.283 247.59 154.8 249.324 154.8ZM258.017 179V158.7H254.017V155.6H258.017V147.85H261.417V155.6H266.817V158.7H261.417V179H258.017Z" fill="#67ADFF"/>
<path d="M188.15 179L187.211 179.344L187.451 180H188.15V179ZM184.65 169.45L185.589 169.106L185.349 168.45H184.65V169.45ZM170.5 169.45V168.45H169.777L169.55 169.137L170.5 169.45ZM167.35 179V180H168.073L168.3 179.313L167.35 179ZM163.6 179L162.658 178.666L162.184 180H163.6V179ZM175.7 144.9V143.9H174.994L174.758 144.566L175.7 144.9ZM179.2 144.9L180.139 144.557L179.899 143.9H179.2V144.9ZM191.65 179V180H193.08L192.589 178.657L191.65 179ZM171.65 166.35L170.705 166.022L170.244 167.35H171.65V166.35ZM183.5 166.35V167.35H184.934L184.438 166.004L183.5 166.35ZM177.4 149.8L178.338 149.454L177.372 146.833L176.455 149.472L177.4 149.8ZM189.089 178.656L185.589 169.106L183.711 169.794L187.211 179.344L189.089 178.656ZM184.65 168.45H170.5V170.45H184.65V168.45ZM169.55 169.137L166.4 178.687L168.3 179.313L171.45 169.763L169.55 169.137ZM167.35 178H163.6V180H167.35V178ZM164.542 179.334L176.642 145.234L174.758 144.566L162.658 178.666L164.542 179.334ZM175.7 145.9H179.2V143.9H175.7V145.9ZM178.261 145.243L190.711 179.343L192.589 178.657L180.139 144.557L178.261 145.243ZM191.65 178H188.15V180H191.65V178ZM171.65 167.35H183.5V165.35H171.65V167.35ZM184.438 166.004L178.338 149.454L176.462 150.146L182.562 166.696L184.438 166.004ZM176.455 149.472L170.705 166.022L172.595 166.678L178.345 150.128L176.455 149.472ZM197.648 179H196.648V180H197.648V179ZM197.648 142.7V141.7H196.648V142.7H197.648ZM201.048 142.7H202.048V141.7H201.048V142.7ZM201.048 179V180H202.048V179H201.048ZM198.648 179V142.7H196.648V179H198.648ZM197.648 143.7H201.048V141.7H197.648V143.7ZM200.048 142.7V179H202.048V142.7H200.048ZM201.048 178H197.648V180H201.048V178ZM225.354 156.35L224.835 157.205L225.354 156.35ZM229.354 160.6L228.473 161.073L228.477 161.08L229.354 160.6ZM230.754 168V169H231.659L231.749 168.1L230.754 168ZM211.504 168V167H210.447L210.506 168.055L211.504 168ZM213.854 174.15L213.09 174.795L213.854 174.15ZM224.654 175.6L225.146 176.471L225.153 176.467L224.654 175.6ZM227.854 172.45L228.409 171.618L227.536 171.036L226.997 171.936L227.854 172.45ZM230.554 174.25L231.399 174.786L231.923 173.96L231.109 173.418L230.554 174.25ZM226.204 178.35L226.677 179.231L226.684 179.228L226.69 179.224L226.204 178.35ZM213.754 178.2L213.237 179.056L213.754 178.2ZM209.604 173.75L210.489 173.284L209.604 173.75ZM209.554 160.85L208.669 160.384L208.663 160.397L209.554 160.85ZM213.654 156.4L213.137 155.544L213.13 155.548L213.654 156.4ZM227.404 165.2V166.2H228.551L228.395 165.064L227.404 165.2ZM224.954 159.75L224.266 160.476L224.276 160.485L224.954 159.75ZM214.304 160L213.597 159.293L214.304 160ZM211.704 165.2L210.719 165.028L210.515 166.2H211.704V165.2ZM219.654 155.8C221.582 155.8 223.3 156.272 224.835 157.205L225.874 155.495C224.008 154.362 221.927 153.8 219.654 153.8V155.8ZM224.835 157.205C226.378 158.143 227.589 159.426 228.473 161.073L230.235 160.127C229.187 158.174 227.73 156.624 225.874 155.495L224.835 157.205ZM228.477 161.08C229.356 162.686 229.804 164.502 229.804 166.55H231.804C231.804 164.198 231.286 162.047 230.232 160.12L228.477 161.08ZM229.804 166.55C229.804 167.174 229.788 167.617 229.759 167.9L231.749 168.1C231.788 167.716 231.804 167.193 231.804 166.55H229.804ZM230.754 167H211.504V169H230.754V167ZM210.506 168.055C210.65 170.653 211.505 172.915 213.09 174.795L214.619 173.505C213.337 171.985 212.625 170.147 212.503 167.945L210.506 168.055ZM213.09 174.795C214.735 176.746 216.979 177.7 219.704 177.7V175.7C217.496 175.7 215.84 174.954 214.619 173.505L213.09 174.795ZM219.704 177.7C221.82 177.7 223.653 177.313 225.146 176.471L224.163 174.729C223.055 175.354 221.589 175.7 219.704 175.7V177.7ZM225.153 176.467C226.636 175.614 227.825 174.442 228.712 172.964L226.997 171.936C226.283 173.124 225.34 174.052 224.156 174.733L225.153 176.467ZM227.3 173.282L230 175.082L231.109 173.418L228.409 171.618L227.3 173.282ZM229.71 173.714C228.7 175.306 227.373 176.557 225.719 177.476L226.69 179.224C228.635 178.143 230.209 176.661 231.399 174.786L229.71 173.714ZM225.731 177.469C224.104 178.343 222.14 178.8 219.804 178.8V180.8C222.402 180.8 224.705 180.29 226.677 179.231L225.731 177.469ZM219.804 178.8C217.701 178.8 215.867 178.307 214.271 177.344L213.237 179.056C215.175 180.226 217.374 180.8 219.804 180.8V178.8ZM214.271 177.344C212.667 176.375 211.408 175.03 210.489 173.284L208.719 174.216C209.801 176.27 211.308 177.891 213.237 179.056L214.271 177.344ZM210.489 173.284C209.573 171.544 209.104 169.557 209.104 167.3H207.104C207.104 169.843 207.635 172.156 208.719 174.216L210.489 173.284ZM209.104 167.3C209.104 165.038 209.559 163.046 210.446 161.303L208.663 160.397C207.616 162.454 207.104 164.762 207.104 167.3H209.104ZM210.439 161.316C211.36 159.565 212.606 158.219 214.178 157.252L213.13 155.548C211.236 156.714 209.748 158.335 208.669 160.384L210.439 161.316ZM214.171 157.256C215.769 156.291 217.588 155.8 219.654 155.8V153.8C217.254 153.8 215.073 154.375 213.137 155.544L214.171 157.256ZM228.395 165.064C228.042 162.489 227.159 160.424 225.633 159.015L224.276 160.485C225.35 161.476 226.1 163.044 226.414 165.336L228.395 165.064ZM225.643 159.025C224.114 157.574 222.078 156.9 219.654 156.9V158.9C221.698 158.9 223.195 159.459 224.266 160.475L225.643 159.025ZM219.654 156.9C217.25 156.9 215.203 157.687 213.597 159.293L215.011 160.707C216.205 159.513 217.725 158.9 219.654 158.9V156.9ZM213.597 159.293C212.07 160.82 211.117 162.747 210.719 165.028L212.689 165.372C213.024 163.453 213.805 161.913 215.011 160.707L213.597 159.293ZM211.704 166.2H227.404V164.2H211.704V166.2ZM251.624 155.15H252.624V154.419L251.927 154.197L251.624 155.15ZM251.624 158.25L251.194 159.153L252.624 159.834V158.25H251.624ZM245.324 158.95L244.78 158.111L245.324 158.95ZM242.324 162.45L241.429 162.003L241.425 162.011L242.324 162.45ZM241.224 179V180H242.224V179H241.224ZM237.824 179H236.824V180H237.824V179ZM237.824 155.6V154.6H236.824V155.6H237.824ZM241.224 155.6H242.224V154.6H241.224V155.6ZM241.224 160.3H240.224L242.111 160.761L241.224 160.3ZM244.624 156.25L244.056 155.427L244.046 155.434L244.624 156.25ZM249.324 155.8C250.025 155.8 250.689 155.902 251.321 156.103L251.927 154.197C251.092 153.931 250.223 153.8 249.324 153.8V155.8ZM250.624 155.15V158.25H252.624V155.15H250.624ZM252.054 157.347C251.21 156.945 250.295 156.75 249.324 156.75V158.75C250.02 158.75 250.638 158.888 251.194 159.153L252.054 157.347ZM249.324 156.75C247.692 156.75 246.171 157.209 244.78 158.111L245.868 159.789C246.944 159.091 248.089 158.75 249.324 158.75V156.75ZM244.78 158.111C243.373 159.023 242.262 160.337 241.429 162.003L243.218 162.897C243.919 161.497 244.808 160.477 245.868 159.789L244.78 158.111ZM241.425 162.011C240.611 163.676 240.224 165.617 240.224 167.8H242.224C242.224 165.85 242.57 164.224 243.222 162.889L241.425 162.011ZM240.224 167.8V179H242.224V167.8H240.224ZM241.224 178H237.824V180H241.224V178ZM238.824 179V155.6H236.824V179H238.824ZM237.824 156.6H241.224V154.6H237.824V156.6ZM240.224 155.6V160.3H242.224V155.6H240.224ZM242.111 160.761C242.95 159.145 243.985 157.927 245.201 157.066L244.046 155.434C242.529 156.507 241.298 157.988 240.336 159.839L242.111 160.761ZM245.192 157.073C246.422 156.224 247.789 155.8 249.324 155.8V153.8C247.392 153.8 245.626 154.343 244.056 155.427L245.192 157.073ZM258.017 179H257.017V180H258.017V179ZM258.017 158.7H259.017V157.7H258.017V158.7ZM254.017 158.7H253.017V159.7H254.017V158.7ZM254.017 155.6V154.6H253.017V155.6H254.017ZM258.017 155.6V156.6H259.017V155.6H258.017ZM258.017 147.85V146.85H257.017V147.85H258.017ZM261.417 147.85H262.417V146.85H261.417V147.85ZM261.417 155.6H260.417V156.6H261.417V155.6ZM266.817 155.6H267.817V154.6H266.817V155.6ZM266.817 158.7V159.7H267.817V158.7H266.817ZM261.417 158.7V157.7H260.417V158.7H261.417ZM261.417 179V180H262.417V179H261.417ZM259.017 179V158.7H257.017V179H259.017ZM258.017 157.7H254.017V159.7H258.017V157.7ZM255.017 158.7V155.6H253.017V158.7H255.017ZM254.017 156.6H258.017V154.6H254.017V156.6ZM259.017 155.6V147.85H257.017V155.6H259.017ZM258.017 148.85H261.417V146.85H258.017V148.85ZM260.417 147.85V155.6H262.417V147.85H260.417ZM261.417 156.6H266.817V154.6H261.417V156.6ZM265.817 155.6V158.7H267.817V155.6H265.817ZM266.817 157.7H261.417V159.7H266.817V157.7ZM260.417 158.7V179H262.417V158.7H260.417ZM261.417 178H258.017V180H261.417V178Z" fill="#67ADFF"/>
</svg>
