<svg width="8" height="36" viewBox="0 0 8 36" fill="none" xmlns="http://www.w3.org/2000/svg">
<path d="M8 31.8462C8 32.9478 7.57857 34.0044 6.82843 34.7834C6.07828 35.5624 5.06087 36 4 36C2.93913 36 1.92172 35.5624 1.17157 34.7834C0.421427 34.0044 0 32.9478 0 31.8462C0 30.7445 0.421427 29.6879 1.17157 28.9089C1.92172 28.1299 2.93913 27.6923 4 27.6923C5.06087 27.6923 6.07828 28.1299 6.82843 28.9089C7.57857 29.6879 8 30.7445 8 31.8462ZM8 18C8 19.1017 7.57857 20.1582 6.82843 20.9372C6.07828 21.7162 5.06087 22.1538 4 22.1538C2.93913 22.1538 1.92172 21.7162 1.17157 20.9372C0.421427 20.1582 0 19.1017 0 18C0 16.8983 0.421427 15.8418 1.17157 15.0628C1.92172 14.2838 2.93913 13.8462 4 13.8462C5.06087 13.8462 6.07828 14.2838 6.82843 15.0628C7.57857 15.8418 8 16.8983 8 18ZM8 4.15385C8 5.25551 7.57857 6.31206 6.82843 7.09106C6.07828 7.87006 5.06087 8.30769 4 8.30769C2.93913 8.30769 1.92172 7.87006 1.17157 7.09106C0.421427 6.31206 0 5.25551 0 4.15385C0 3.05218 0.421427 1.99563 1.17157 1.21663C1.92172 0.437636 2.93913 0 4 0C5.06087 0 6.07828 0.437636 6.82843 1.21663C7.57857 1.99563 8 3.05218 8 4.15385Z" fill="white"/>
</svg>
