<svg width="24" height="24" viewBox="0 0 24 24" fill="none" xmlns="http://www.w3.org/2000/svg">
<rect width="24" height="24" fill="white" fill-opacity="0.01"/>
<path d="M12 16.3729L15.98 18.5659L15.22 13.9109L18.496 10.5639L13.972 9.87394L12 5.68694L10.028 9.87594L5.50399 10.5649L8.77999 13.9099L8.01799 18.5649L12 16.3729ZM12 18.6559L8.98399 20.3179C8.65533 20.4991 8.28235 20.5841 7.90766 20.5632C7.53298 20.5424 7.17171 20.4166 6.86515 20.2002C6.5586 19.9837 6.31912 19.6854 6.17408 19.3393C6.02905 18.9932 5.98431 18.6133 6.04499 18.2429L6.64399 14.5869L4.07399 11.9629C3.81631 11.6999 3.63625 11.3708 3.55365 11.012C3.47105 10.6531 3.48913 10.2784 3.60588 9.92922C3.72264 9.57999 3.93354 9.26977 4.21534 9.03276C4.49715 8.79574 4.83892 8.64112 5.20299 8.58594L8.67299 8.05794L10.191 4.83394C10.3527 4.4909 10.6087 4.20092 10.929 3.99782C11.2493 3.79473 11.6207 3.68689 12 3.68689C12.3793 3.68689 12.7507 3.79473 13.071 3.99782C13.3913 4.20092 13.6472 4.4909 13.809 4.83394L15.328 8.05794L18.798 8.58594C19.1619 8.64142 19.5034 8.79626 19.785 9.0334C20.0665 9.27054 20.2772 9.58079 20.3937 9.92997C20.5102 10.2791 20.5281 10.6537 20.4454 11.0124C20.3627 11.3711 20.1826 11.7 19.925 11.9629L17.356 14.5869L17.955 18.2429C18.0158 18.6134 17.9711 18.9935 17.8261 19.3398C17.681 19.686 17.4414 19.9845 17.1347 20.2009C16.8279 20.4174 16.4665 20.5432 16.0916 20.5639C15.7168 20.5846 15.3437 20.4993 15.015 20.3179L12 18.6559Z" fill="#DFE1E6"/>
</svg>
