<svg width="16" height="16" viewBox="0 0 16 16" fill="none" xmlns="http://www.w3.org/2000/svg">
<rect width="16" height="16" fill="white" fill-opacity="0.01"/>
<path fill-rule="evenodd" clip-rule="evenodd" d="M8.04805 11.5227L5.44471 12.8914C5.33461 12.9493 5.21052 12.9752 5.08645 12.9663C4.96239 12.9573 4.8433 12.9138 4.74267 12.8407C4.64203 12.7676 4.56385 12.6678 4.51697 12.5526C4.47009 12.4374 4.45637 12.3113 4.47738 12.1887L4.97405 9.28939L2.86805 7.23606C2.77911 7.14922 2.71622 7.03925 2.68648 6.91856C2.65674 6.79786 2.66133 6.67126 2.69974 6.55304C2.73816 6.43482 2.80886 6.32969 2.90386 6.24953C2.99886 6.16937 3.11438 6.11737 3.23738 6.09939L6.14805 5.67606L7.45005 3.03873C7.50506 2.92708 7.59023 2.83307 7.69592 2.76733C7.8016 2.70159 7.92358 2.66675 8.04805 2.66675C8.17251 2.66675 8.29449 2.70159 8.40017 2.76733C8.50586 2.83307 8.59103 2.92708 8.64605 3.03873L9.94738 5.67606L12.858 6.09939C12.9811 6.11727 13.0967 6.1692 13.1918 6.24932C13.2869 6.32943 13.3577 6.43455 13.3962 6.55279C13.4346 6.67102 13.4393 6.79767 13.4096 6.91841C13.3799 7.03915 13.317 7.14918 13.228 7.23606L11.1214 9.28939L11.6187 12.1887C11.6396 12.3112 11.6259 12.4372 11.579 12.5523C11.5322 12.6674 11.4541 12.7671 11.3535 12.8402C11.253 12.9133 11.134 12.9568 11.0101 12.9658C10.8861 12.9749 10.7621 12.9491 10.652 12.8914L8.04805 11.5227Z" fill="#6B778C"/>
</svg>
